<svg width="950" height="950" viewBox="0 0 950 950" fill="none" xmlns="http://www.w3.org/2000/svg">
<rect x="393" y="284" width="432" height="232" rx="21" fill="#F3BEBE"/>
<path d="M125 146C125 134.402 134.402 125 146 125H704C715.598 125 725 134.402 725 146V336C725 347.598 715.598 357 704 357H146C134.402 357 125 347.598 125 336V146Z" fill="#E06D6D"/>
<path d="M393 305C393 293.402 402.402 284 414 284H804C815.598 284 825 293.402 825 305V495C825 506.598 815.598 516 804 516H414C402.402 516 393 506.598 393 495V305Z" fill="#E06D6D"/>
<path d="M125 463C125 451.402 134.402 442 146 442H704C715.598 442 725 451.402 725 463V654C725 665.598 715.598 675 704 675H146C134.402 675 125 665.598 125 654V463Z" fill="#E06D6D"/>
<rect x="200" y="50" width="85" height="850" rx="21" fill="#B14C4C"/>
</svg>
